<?xml version="1.0" encoding="UTF-8" standalone="no"?>
<!-- Created with Inkscape (http://www.inkscape.org/) -->

<svg
   xmlns:dc="http://purl.org/dc/elements/1.1/"
   xmlns:cc="http://creativecommons.org/ns#"
   xmlns:rdf="http://www.w3.org/1999/02/22-rdf-syntax-ns#"
   xmlns:svg="http://www.w3.org/2000/svg"
   xmlns="http://www.w3.org/2000/svg"
   xmlns:sodipodi="http://sodipodi.sourceforge.net/DTD/sodipodi-0.dtd"
   xmlns:inkscape="http://www.inkscape.org/namespaces/inkscape"
   width="705"
   height="224.28572"
   id="svg2"
   version="1.1"
   inkscape:version="0.48.4 r9939"
   sodipodi:docname="logo.svg">
  <defs
     id="defs4" />
  <sodipodi:namedview
     id="base"
     pagecolor="#ffffff"
     bordercolor="#666666"
     borderopacity="1.0"
     inkscape:pageopacity="0.0"
     inkscape:pageshadow="2"
     inkscape:zoom="1.4"
     inkscape:cx="489.24371"
     inkscape:cy="54.444504"
     inkscape:document-units="px"
     inkscape:current-layer="layer1"
     showgrid="false"
     fit-margin-top="0"
     fit-margin-left="0"
     fit-margin-right="0"
     fit-margin-bottom="0"
     inkscape:window-width="1920"
     inkscape:window-height="1056"
     inkscape:window-x="1920"
     inkscape:window-y="27"
     inkscape:window-maximized="1" />
  <metadata
     id="metadata7">
    <rdf:RDF>
      <cc:Work
         rdf:about="">
        <dc:format>image/svg+xml</dc:format>
        <dc:type
           rdf:resource="http://purl.org/dc/dcmitype/StillImage" />
        <dc:title />
      </cc:Work>
    </rdf:RDF>
  </metadata>
  <g
     inkscape:label="Layer 1"
     inkscape:groupmode="layer"
     id="layer1"
     transform="translate(-22.142857,-395.21933)">
    <g
       style="font-size:162.03358459px;font-style:normal;font-variant:normal;font-weight:normal;font-stretch:normal;line-height:125%;letter-spacing:0px;word-spacing:0px;fill:#000000;fill-opacity:1;stroke:none;font-family:Detonate BRK;-inkscape-font-specification:Detonate BRK"
       id="text2985">
      <path
         d="m 89.71272,545.88377 0,-4.3749 c -10e-7,-1.08021 -0.05401,-2.21445 -0.162033,-3.40271 -2e-6,-1.29625 0.216043,-2.48449 0.648134,-3.56474 l 7.453545,-20.2542 c 0.648124,-1.83633 1.566313,-3.72672 2.754574,-5.67117 1.29625,-1.94435 2.70054,-3.78073 4.21287,-5.50914 1.62032,-1.72831 3.34867,-3.24062 5.18507,-4.53694 1.83636,-1.40424 3.67274,-2.43045 5.50915,-3.07864 0.6481,-0.21599 1.51228,-0.48604 2.59253,-0.81017 1.18822,-0.43203 2.32245,-0.81011 3.40271,-1.13423 1.18821,-0.32401 2.16041,-0.59406 2.9166,-0.81017 0.86415,-0.32401 1.35025,-0.48604 1.45831,-0.4861 l 21.87453,0 c 0.86412,6e-5 1.83632,-0.27 2.9166,-0.81017 1.18819,-0.64807 2.26841,-1.40423 3.24068,-2.26847 1.08015,-0.97213 2.05235,-1.94434 2.9166,-2.91661 0.86411,-0.97213 1.45823,-1.8363 1.78237,-2.59253 l 11.34235,-30.13825 c 0.43201,-1.08012 0.97212,-2.21435 1.62034,-3.4027 0.75607,-1.29617 1.56624,-2.4304 2.4305,-3.40271 0.97212,-1.08011 2.05234,-1.94429 3.24067,-2.59254 1.18816,-0.64802 2.43041,-0.97209 3.72677,-0.9722 2.05234,1.1e-4 3.8347,0.4322 5.34711,1.29627 1.62024,0.75627 2.91651,1.83649 3.88881,3.24067 0.9721,1.4044 1.67424,2.97072 2.10644,4.69898 0.54,1.72846 0.81006,3.51082 0.81016,5.3471 l 0,3.40271 c -1e-4,1.18834 -0.16213,2.26856 -0.4861,3.24067 l -25.27724,67.73004 c -1.0803,2.8086 -2.59261,5.61718 -4.53694,8.42575 -1.94447,2.80859 -4.21294,5.34711 -6.80541,7.61557 -2.48458,2.26848 -5.23915,4.10486 -8.26371,5.50915 -3.02468,1.40429 -6.15733,2.10643 -9.39795,2.10643 l -35.16129,0 c -2.91661,0 -5.725192,-0.91819 -8.425742,-2.75457 -2.592542,-1.9444 -4.212876,-4.32089 -4.861008,-7.12948 m 27.54571,-10.37015 c -3e-5,2.59256 0.75613,4.2669 2.26847,5.02305 1.51228,0.64814 3.40267,0.97221 5.67118,0.9722 3.78074,10e-6 6.80536,-0.81016 9.07388,-2.43051 2.26842,-1.62031 4.1048,-3.67274 5.50914,-6.15727 1.51226,-2.59252 2.7005,-5.45511 3.56474,-8.58778 0.97214,-3.13262 1.99835,-6.15724 3.07863,-9.07388 0.21599,-0.6481 0.37802,-1.1342 0.48611,-1.45831 0.10796,-0.43204 0.16197,-0.91814 0.16203,-1.4583 -6e-5,-1.40424 -0.43215,-2.59249 -1.29627,-3.56474 -0.75621,-1.08017 -1.83644,-1.72831 -3.24067,-1.9444 l -3.72677,0 c -2.80863,5e-5 -5.67122,0.70219 -8.58778,2.10644 -2.80863,1.29631 -4.80704,3.40275 -5.99525,6.31931 l -6.80541,18.30979 c -0.10805,1.08025 -0.16206,1.72838 -0.16203,1.9444"
         style="font-family:Detonate BRK;-inkscape-font-specification:Detonate BRK"
         id="path3015" />
      <path
         d="m 174.21071,541.50887 c -1e-5,-1.29626 0.054,-2.53851 0.16203,-3.72678 0.10802,-1.29625 0.37808,-2.5385 0.81017,-3.72677 0.21604,-0.75613 0.64813,-2.0524 1.29627,-3.8888 0.64813,-1.83636 1.29626,-3.72675 1.9444,-5.67118 0.75615,-2.05239 1.45829,-3.99679 2.10644,-5.83321 0.75614,-1.83634 1.29626,-3.13261 1.62033,-3.8888 1.08021,-2.70052 2.59253,-5.34707 4.53694,-7.93965 1.94439,-2.70051 4.15885,-5.077 6.64338,-7.12948 2.59251,-2.16039 5.34708,-3.88874 8.26371,-5.18507 2.91657,-1.29621 5.9412,-1.94434 9.07388,-1.94441 l 35.16129,0 c 0.54004,7e-5 1.40422,0.21611 2.59254,0.64814 1.29619,0.32413 2.21438,0.59418 2.75457,0.81017 3.13257,1.29633 5.239,3.02468 6.31931,5.18507 1.08014,2.05248 1.62025,4.69903 1.62033,7.93965 l 0,3.4027 c -8e-5,1.18829 -0.16212,2.26852 -0.4861,3.24067 l -11.34235,30.62435 c -0.97227,2.59255 -2.43057,5.13107 -4.3749,7.61558 -1.83645,2.48452 -4.26695,3.72677 -7.29152,3.72677 -1.29633,0 -2.48457,-0.43209 -3.56473,-1.29627 -0.97226,-0.86417 -1.83644,-1.83637 -2.59254,-2.9166 -0.64819,-1.08022 -1.1883,-2.05242 -1.62034,-2.91661 -0.43214,-0.86417 -0.7022,-1.29626 -0.81017,-1.29626 -5e-5,0 -0.16208,0.054 -0.4861,0.16203 -0.21609,0.10803 -0.37813,0.21605 -0.4861,0.32407 -1.29632,0.75616 -2.53857,1.62034 -3.72677,2.59253 -1.18829,0.86419 -2.43055,1.72837 -3.72677,2.59254 -1.18829,0.75616 -2.48456,1.40429 -3.88881,1.9444 -1.40433,0.54012 -2.91664,0.81017 -4.53694,0.81017 l -22.6847,0 c -0.64815,0 -1.72837,-0.21604 -3.24067,-0.64813 -1.4043,-0.54011 -2.43051,-0.9722 -3.07864,-1.29627 -2.80859,-1.40429 -4.69898,-3.07863 -5.67118,-5.02304 -0.86418,-2.05242 -1.29627,-4.48292 -1.29626,-7.29151 m 27.54571,-5.50915 c -3e-5,1.62036 0.43206,2.97064 1.29626,4.05084 0.97217,0.97222 2.26844,1.45832 3.88881,1.45831 3.02459,10e-6 5.67114,-0.59411 7.93965,-1.78237 2.26842,-1.18823 4.26683,-2.75455 5.99524,-4.69898 1.72831,-1.94438 3.24062,-4.10482 4.53694,-6.48134 1.29621,-2.37646 2.48446,-4.80696 3.56474,-7.29151 0.7561,-1.6203 1.35022,-3.0786 1.78237,-4.37491 0.54005,-1.40425 0.81011,-2.91656 0.81016,-4.53694 -5e-5,-1.29622 -0.37813,-2.53848 -1.13423,-3.72677 -0.75621,-1.1882 -1.89045,-1.78232 -3.40271,-1.78237 l -7.45354,0 c -0.86423,5e-5 -1.83643,0.2701 -2.9166,0.81017 -0.97225,0.54016 -1.99846,1.2423 -3.07864,2.10643 -0.97224,0.75621 -1.89043,1.62038 -2.75457,2.59254 -0.7562,0.86422 -1.29631,1.67439 -1.62034,2.43051 l -7.29151,19.76809 c -0.10805,2e-5 -0.16206,0.21607 -0.16203,0.64814 l 0,0.81016 0,0"
         style="font-family:Detonate BRK;-inkscape-font-specification:Detonate BRK"
         id="path3017" />
      <path
         d="m 267.06354,541.50887 c -10e-6,-1.08021 -0.054,-2.21445 -0.16203,-3.40271 -10e-6,-1.29625 0.21603,-2.48449 0.64813,-3.56474 l 7.45355,-20.7403 c 0.32404,-0.97215 0.48608,-2.05238 0.4861,-3.24067 -2e-5,-1.62029 -0.3781,-2.6465 -1.13424,-3.07864 -0.75617,-0.43204 -1.62035,-0.7561 -2.59253,-0.9722 -0.97222,-0.32402 -1.8364,-0.7561 -2.59254,-1.29627 -0.75617,-0.64808 -1.13425,-1.89034 -1.13424,-3.72677 -10e-6,-1.7283 0.37807,-3.07858 1.13424,-4.05084 0.86416,-1.08016 1.94438,-2.2144 3.24067,-3.4027 0.64812,-0.54005 1.35026,-0.86412 2.10644,-0.9722 0.86415,-0.21599 1.67432,-0.37802 2.4305,-0.48611 0.86416,-0.10795 1.67432,-0.21598 2.4305,-0.32406 0.75613,-0.21598 1.40427,-0.59406 1.94441,-1.13424 1.08019,-0.97213 2.1064,-2.10637 3.07864,-3.4027 0.97217,-1.2962 1.99838,-2.48445 3.07863,-3.56474 1.08019,-1.08015 2.26844,-1.99834 3.56474,-2.75457 1.29623,-0.75608 2.86256,-1.13416 4.69898,-1.13424 l 9.88405,0 c 1.62028,8e-5 2.86253,0.27013 3.72677,0.81017 0.86412,0.54019 1.45824,1.24233 1.78237,2.10644 0.32401,0.75622 0.48604,1.6204 0.4861,2.59253 0.10796,0.97227 0.16197,1.83645 0.16203,2.59254 -6e-5,1.08029 0.37802,1.83645 1.13424,2.26847 1.18818,0.6482 2.80852,1.02628 4.861,1.13424 2.16039,0.10808 4.26682,0.32413 6.31931,0.64813 2.05236,0.21611 3.83472,0.70221 5.34711,1.4583 1.51224,0.75622 2.26839,2.05249 2.26847,3.88881 -8e-5,2.37655 -0.75623,4.15891 -2.26847,5.34711 -1.40436,1.1883 -3.13272,2.05247 -5.18507,2.59253 -1.94447,0.43214 -4.05091,0.7022 -6.31931,0.81017 -2.16051,0.10807 -3.99689,0.27011 -5.50914,0.4861 -2.37655,0.2161 -4.64502,1.29632 -6.80541,3.24067 -2.1605,1.83643 -3.67281,3.83484 -4.53694,5.99525 -0.2161,0.64817 -0.64819,1.7824 -1.29627,3.4027 -0.54016,1.62037 -1.1883,3.40274 -1.94441,5.34711 -0.64817,1.83641 -1.29631,3.56477 -1.9444,5.18508 -0.54015,1.62036 -0.91823,2.75459 -1.13423,3.4027 -0.10807,0.10805 -0.16208,0.48612 -0.16204,1.13424 l 0,1.13423 c -4e-5,0.97222 0.27002,2.21448 0.81017,3.72677 0.64809,1.40431 1.72831,2.10645 3.24067,2.10644 l 21.2264,0 c 1.51225,1e-5 2.86252,0.64815 4.05084,1.9444 1.2962,1.18826 1.94433,2.53854 1.9444,4.05084 -7e-5,1.18826 -0.37815,2.32249 -1.13423,3.40271 -0.75623,0.9722 -1.67442,1.83638 -2.75457,2.59254 -1.08029,0.64813 -2.26854,1.18824 -3.56474,1.62033 -1.29633,0.32407 -2.48458,0.4861 -3.56474,0.4861 l -34.51315,0 c -2.80861,0 -5.56318,-0.91819 -8.26372,-2.75457 -2.70057,-1.9444 -4.37492,-4.32089 -5.02304,-7.12948 l 0,-4.3749"
         style="font-family:Detonate BRK;-inkscape-font-specification:Detonate BRK"
         id="path3019" />
      <path
         d="m 334.18722,541.50887 c 0,-1.29626 0.054,-2.53851 0.16204,-3.72678 0.10802,-1.29625 0.37807,-2.5385 0.81016,-3.72677 0.21605,-0.75613 0.64814,-2.0524 1.29627,-3.8888 0.64813,-1.83636 1.29627,-3.72675 1.94441,-5.67118 0.75615,-2.05239 1.45829,-3.99679 2.10643,-5.83321 0.75615,-1.83634 1.29626,-3.13261 1.62034,-3.8888 1.08021,-2.70052 2.59252,-5.34707 4.53694,-7.93965 1.94439,-2.70051 4.15884,-5.077 6.64338,-7.12948 2.59251,-2.16039 5.34708,-3.88874 8.26371,-5.18507 2.91657,-1.29621 5.9412,-1.94434 9.07388,-1.94441 l 35.16129,0 c 0.54004,7e-5 1.40421,0.21611 2.59253,0.64814 1.2962,0.32413 2.21439,0.59418 2.75458,0.81017 3.13256,1.29633 5.239,3.02468 6.31931,5.18507 1.08013,2.05248 1.62024,4.69903 1.62033,7.93965 l 0,3.4027 c -9e-5,1.18829 -0.16212,2.26852 -0.4861,3.24067 l -11.34235,30.62435 c -0.97228,2.59255 -2.43058,5.13107 -4.37491,7.61558 -1.83645,2.48452 -4.26695,3.72677 -7.29151,3.72677 -1.29633,0 -2.48457,-0.43209 -3.56474,-1.29627 -0.97226,-0.86417 -1.83644,-1.83637 -2.59253,-2.9166 -0.6482,-1.08022 -1.18831,-2.05242 -1.62034,-2.91661 -0.43215,-0.86417 -0.7022,-1.29626 -0.81017,-1.29626 -5e-5,0 -0.16209,0.054 -0.4861,0.16203 -0.2161,0.10803 -0.37813,0.21605 -0.4861,0.32407 -1.29632,0.75616 -2.53858,1.62034 -3.72677,2.59253 -1.1883,0.86419 -2.43055,1.72837 -3.72678,2.59254 -1.18829,0.75616 -2.48455,1.40429 -3.8888,1.9444 -1.40433,0.54012 -2.91664,0.81017 -4.53694,0.81017 l -22.6847,0 c -0.64815,0 -1.72837,-0.21604 -3.24068,-0.64813 -1.4043,-0.54011 -2.43051,-0.9722 -3.07863,-1.29627 -2.80859,-1.40429 -4.69898,-3.07863 -5.67118,-5.02304 -0.86418,-2.05242 -1.29627,-4.48292 -1.29627,-7.29151 m 27.54571,-5.50915 c -3e-5,1.62036 0.43206,2.97064 1.29627,4.05084 0.97217,0.97222 2.26844,1.45832 3.88881,1.45831 3.02459,10e-6 5.67113,-0.59411 7.93964,-1.78237 2.26843,-1.18823 4.26684,-2.75455 5.99525,-4.69898 1.7283,-1.94438 3.24062,-4.10482 4.53694,-6.48134 1.29621,-2.37646 2.48446,-4.80696 3.56473,-7.29151 0.7561,-1.6203 1.35023,-3.0786 1.78237,-4.37491 0.54006,-1.40425 0.81011,-2.91656 0.81017,-4.53694 -6e-5,-1.29622 -0.37814,-2.53848 -1.13423,-3.72677 -0.75622,-1.1882 -1.89045,-1.78232 -3.40271,-1.78237 l -7.45354,0 c -0.86423,5e-5 -1.83643,0.2701 -2.91661,0.81017 -0.97224,0.54016 -1.99845,1.2423 -3.07864,2.10643 -0.97224,0.75621 -1.89043,1.62038 -2.75457,2.59254 -0.75619,0.86422 -1.2963,1.67439 -1.62033,2.43051 l -7.29151,19.76809 c -0.10806,2e-5 -0.16207,0.21607 -0.16204,0.64814 l 0,0.81016 0,0"
         style="font-family:Detonate BRK;-inkscape-font-specification:Detonate BRK"
         id="path3021" />
      <path
         d="m 412.52415,550.42071 c 0,-1.08021 0.32407,-2.16044 0.9722,-3.24067 0.64814,-1.08021 1.51231,-1.9984 2.59254,-2.75457 0.9722,-0.86417 2.05242,-1.5123 3.24067,-1.9444 1.29626,-0.5401 2.48451,-0.81016 3.56474,-0.81017 l 34.02705,0 c 0.64809,1e-5 1.51227,-0.16202 2.59254,-0.4861 1.08018,-0.32405 2.10639,-0.75614 3.07864,-1.29627 1.08017,-0.64812 1.94435,-1.35026 2.59253,-2.10644 0.75611,-0.75613 1.13419,-1.5663 1.13424,-2.4305 -5e-5,-0.97218 -0.59417,-1.89037 -1.78237,-2.75457 -1.18829,-0.86416 -2.21451,-1.29624 -3.07864,-1.29627 l -21.7125,0 c -0.21607,3e-5 -1.02623,-0.21602 -2.4305,-0.64813 -1.29629,-0.43207 -2.3225,-0.75613 -3.07864,-0.9722 -3.02464,-1.18822 -5.18509,-2.97059 -6.48135,-5.34711 -1.29627,-2.48448 -1.94441,-5.23905 -1.9444,-8.26372 -1e-5,-2.91656 0.91818,-5.77915 2.75457,-8.58778 1.83637,-2.91655 4.15885,-5.45507 6.96745,-7.61557 2.80856,-2.16039 5.77917,-3.88875 8.91184,-5.18508 3.24065,-1.40423 6.26527,-2.10637 9.07388,-2.10644 l 47.31381,0 c 1.51223,7e-5 2.86251,0.59419 4.05084,1.78237 1.29618,1.08029 1.94431,2.37656 1.9444,3.88881 -9e-5,1.1883 -0.37816,2.26853 -1.13423,3.24067 -0.75625,0.97226 -1.72845,1.89045 -2.91661,2.75457 -1.0803,0.75621 -2.26855,1.35033 -3.56473,1.78237 -1.18833,0.43214 -2.26855,0.64819 -3.24068,0.64814 l -34.02705,0 c -0.64818,5e-5 -1.51236,0.21609 -2.59254,0.64813 -0.97224,0.32412 -1.94444,0.81022 -2.9166,1.4583 -0.97224,0.54016 -1.83642,1.18829 -2.59254,1.94441 -0.64817,0.7562 -0.97224,1.51235 -0.9722,2.26847 -4e-5,1.08026 0.48606,2.05246 1.4583,2.9166 0.97217,0.7562 1.99838,1.13427 3.07864,1.13424 l 21.7125,0 c 0.21598,3e-5 0.97214,0.21608 2.26847,0.64813 1.40423,0.43213 2.48445,0.81021 3.24067,1.13423 5.94116,2.37653 8.91177,6.85946 8.91185,13.44879 -8e-5,2.80861 -0.97228,5.61718 -2.9166,8.42575 -1.83646,2.80859 -4.15894,5.34712 -6.96745,7.61558 -2.80864,2.16045 -5.83327,3.94282 -9.07388,5.34711 -3.24073,1.40429 -6.15733,2.10643 -8.74981,2.10643 l -47.31381,0 c -1.08022,0 -2.32248,-0.4861 -3.72677,-1.4583 -1.51231,-1.08022 -2.26847,-2.37649 -2.26847,-3.88881"
         style="font-family:Detonate BRK;-inkscape-font-specification:Detonate BRK"
         id="path3023" />
      <path
         d="m 500.49318,541.50887 c 0,-0.97219 -0.054,-2.10642 -0.16204,-3.40271 0,-1.29625 0.21605,-2.48449 0.64814,-3.56474 l 25.6013,-69.0263 c 0.97218,-2.48443 2.43048,-5.02295 4.37491,-7.61558 1.94437,-2.70046 4.15883,-5.13096 6.64338,-7.29151 2.48447,-2.16034 5.13102,-3.94271 7.93964,-5.34711 2.91656,-1.40418 5.77915,-2.10633 8.58778,-2.10644 1.7283,1.1e-4 2.91655,0.54022 3.56474,1.62034 0.7561,1.08033 1.13418,2.43061 1.13424,4.05084 -6e-5,0.21615 -0.0541,0.4862 -0.16204,0.81016 -6e-5,0.32418 -0.0541,0.86429 -0.16203,1.62034 -0.10808,0.75626 -0.2161,1.18835 -0.32407,1.29627 l -11.82845,32.56875 0,1.4583 c -5e-5,1.08029 0.37803,2.32255 1.13424,3.72677 0.86413,1.40436 1.99836,2.1065 3.4027,2.10644 l 20.7403,0 c 0.21597,6e-5 0.86411,0.1621 1.9444,0.4861 1.08015,0.21611 1.89032,0.43215 2.43051,0.64814 3.45663,1.40435 5.88713,3.18672 7.29151,5.3471 1.4042,2.05248 2.10635,4.86106 2.10644,8.42575 -9e-5,1.51236 -0.0541,2.70061 -0.16204,3.56474 -8e-5,0.86422 -0.27014,2.16049 -0.81017,3.88881 -1.18833,3.45675 -2.43058,6.96747 -3.72677,10.53218 -1.18833,3.56476 -2.64663,7.02148 -4.37491,10.37015 -1.72843,3.24069 -3.78085,6.26531 -6.15727,9.07388 -2.26854,2.80859 -5.07712,5.18508 -8.42575,7.12948 -1.83644,0.9722 -3.72683,1.89039 -5.67117,2.75457 -1.94446,0.75615 -3.94287,1.13423 -5.99525,1.13423 -1.7284,0 -2.97066,-0.54011 -3.72677,-1.62033 -0.64818,-1.08022 -0.97225,-2.4305 -0.9722,-4.05084 -5e-5,-0.64813 -5e-5,-1.24225 0,-1.78237 0.10798,-0.64813 0.27001,-1.29626 0.4861,-1.94441 l 11.34235,-31.11044 c 0.21599,-0.6481 0.37802,-1.1342 0.4861,-1.45831 0.10797,-0.43204 0.16198,-0.91814 0.16204,-1.4583 -6e-5,-1.40424 -0.43215,-2.59249 -1.29627,-3.56474 -0.75622,-1.08017 -1.83644,-1.72831 -3.24067,-1.9444 l -3.72678,0 c -2.80863,5e-5 -5.67122,0.70219 -8.58778,2.10644 -2.80862,1.29631 -4.80703,3.40275 -5.99524,6.31931 l -12.31455,32.08265 c -0.75618,2.05243 -2.05245,3.99683 -3.88881,5.8332 -1.8364,1.72836 -3.88882,2.59254 -6.15727,2.59254 -2.8086,0 -5.40113,-0.91819 -7.77762,-2.75457 -2.26847,-1.9444 -3.72677,-4.32089 -4.3749,-7.12948 l 0,-4.3749"
         style="font-family:Detonate BRK;-inkscape-font-specification:Detonate BRK"
         id="path3025" />
      <path
         d="m 585.94056,541.50887 c 0,-1.29626 0.054,-2.53851 0.16204,-3.72678 0.10802,-1.29625 0.37807,-2.5385 0.81017,-3.72677 0.21604,-0.75613 0.64813,-2.0524 1.29626,-3.8888 0.64813,-1.83636 1.29627,-3.72675 1.94441,-5.67118 0.75615,-2.05239 1.45829,-3.99679 2.10643,-5.83321 0.75615,-1.83634 1.29626,-3.13261 1.62034,-3.8888 1.08021,-2.70052 2.59253,-5.34707 4.53694,-7.93965 1.94439,-2.70051 4.15884,-5.077 6.64338,-7.12948 2.59251,-2.16039 5.34708,-3.88874 8.26371,-5.18507 2.91657,-1.29621 5.9412,-1.94434 9.07388,-1.94441 l 35.16129,0 c 0.54004,7e-5 1.40422,0.21611 2.59254,0.64814 1.29619,0.32413 2.21438,0.59418 2.75457,0.81017 3.13256,1.29633 5.239,3.02468 6.31931,5.18507 1.08013,2.05248 1.62025,4.69903 1.62033,7.93965 l 0,3.4027 c -8e-5,1.18829 -0.16212,2.26852 -0.4861,3.24067 l -11.34235,30.62435 c -0.97227,2.59255 -2.43057,5.13107 -4.37491,7.61558 -1.83644,2.48452 -4.26695,3.72677 -7.29151,3.72677 -1.29633,0 -2.48457,-0.43209 -3.56474,-1.29627 -0.97226,-0.86417 -1.83643,-1.83637 -2.59253,-2.9166 -0.64819,-1.08022 -1.18831,-2.05242 -1.62034,-2.91661 -0.43214,-0.86417 -0.7022,-1.29626 -0.81017,-1.29626 -5e-5,0 -0.16208,0.054 -0.4861,0.16203 -0.2161,0.10803 -0.37813,0.21605 -0.4861,0.32407 -1.29632,0.75616 -2.53858,1.62034 -3.72677,2.59253 -1.1883,0.86419 -2.43055,1.72837 -3.72677,2.59254 -1.18829,0.75616 -2.48456,1.40429 -3.88881,1.9444 -1.40433,0.54012 -2.91664,0.81017 -4.53694,0.81017 l -22.6847,0 c -0.64815,0 -1.72837,-0.21604 -3.24067,-0.64813 -1.4043,-0.54011 -2.43052,-0.9722 -3.07864,-1.29627 -2.80859,-1.40429 -4.69898,-3.07863 -5.67118,-5.02304 -0.86418,-2.05242 -1.29627,-4.48292 -1.29627,-7.29151 m 27.54571,-5.50915 c -3e-5,1.62036 0.43206,2.97064 1.29627,4.05084 0.97217,0.97222 2.26844,1.45832 3.88881,1.45831 3.02459,10e-6 5.67113,-0.59411 7.93964,-1.78237 2.26843,-1.18823 4.26684,-2.75455 5.99525,-4.69898 1.72831,-1.94438 3.24062,-4.10482 4.53694,-6.48134 1.29621,-2.37646 2.48446,-4.80696 3.56474,-7.29151 0.7561,-1.6203 1.35022,-3.0786 1.78237,-4.37491 0.54005,-1.40425 0.8101,-2.91656 0.81016,-4.53694 -6e-5,-1.29622 -0.37813,-2.53848 -1.13423,-3.72677 -0.75622,-1.1882 -1.89045,-1.78232 -3.40271,-1.78237 l -7.45354,0 c -0.86423,5e-5 -1.83643,0.2701 -2.91661,0.81017 -0.97224,0.54016 -1.99845,1.2423 -3.07863,2.10643 -0.97225,0.75621 -1.89044,1.62038 -2.75458,2.59254 -0.75619,0.86422 -1.2963,1.67439 -1.62033,2.43051 l -7.29151,19.76809 c -0.10805,2e-5 -0.16207,0.21607 -0.16204,0.64814 l 0,0.81016 0,0"
         style="font-family:Detonate BRK;-inkscape-font-specification:Detonate BRK"
         id="path3027" />
    </g>
  </g>
</svg>
